<svg preserveAspectRatio="none" overflow="visible" style="display: block;" width="23.037" height="20.0006" viewBox="0 0 23.037 20.0006" fill="none" xmlns="http://www.w3.org/2000/svg">
<g id="Layer 1">
<path id="Vector" d="M21.9526 1.23787L21.5117 6.34314L19.9736 4.98223C19.2392 5.72191 14.3574 10.6203 13.7616 11.2274L9.66228 7.31654C9.66228 7.31654 7.22756 9.82127 6.51016 10.5638L6.86797 11.6977L9.69481 8.71811L13.7068 12.6552L19.9902 6.36295L22.3662 8.38893L23.037 0L14.7414 1.89764L16.9795 3.78503L12.0931 8.67568L12.8257 9.39203L18.4292 3.72244L16.8915 2.45134" fill="url(#paint0_linear_0_4)"/>
<g id="Group">
<path id="Vector_2" d="M7.21506 16.9121C6.91276 16.9121 6.68788 16.7646 6.59843 16.5072L5.47052 13.2674L3.14965 6.61915L0.00919297 6.62021L0 5.36148L3.91479 5.36643C4.02617 5.36643 4.1188 5.4619 4.18209 5.64187L7.06444 13.8399C7.08 13.8841 7.10475 13.9032 7.14753 13.9032C7.15354 13.9032 7.15955 13.9028 7.16592 13.9021L11.9788 13.3671L17.1763 12.7494L18.2714 9.11787L19.9021 7.42954L20.0209 7.49814L18.1819 13.9534L9.00345 14.9805L7.52232 15.1322L7.69487 15.6244L17.0922 15.6311C17.4401 15.6311 17.6675 15.95 17.6788 16.2452C17.6851 16.4079 17.6077 16.5978 17.4815 16.7289C17.3722 16.8424 17.2389 16.9025 17.0957 16.9025L7.21612 16.9124H7.21506V16.9121Z" fill="#0F2648"/>
<path id="Vector_3" d="M4.11525 5.66434C4.08449 5.57665 4.01837 5.43628 3.91442 5.43628L0.0706991 5.43133L0.0788313 6.54863L3.19949 6.54757L5.53698 13.2432L6.66488 16.483C6.75116 16.7309 6.9633 16.8409 7.21575 16.8405L17.0954 16.8303C17.4122 16.8303 17.6169 16.4852 17.6077 16.2461C17.5978 15.9891 17.3973 15.7002 17.0918 15.6999L7.64429 15.6932L7.42542 15.0691L8.99495 14.9086L18.1264 13.8867L19.9523 7.47712L18.3336 9.15342L17.2304 12.8129L11.9862 13.4359L7.17332 13.9709C7.08422 13.9808 7.02482 13.9415 6.99724 13.862L4.11525 5.66398V5.66434Z" fill="#0F2648"/>
<path id="Vector_4" d="M8.77795 20.0002C8.65561 20.0002 8.53115 19.9829 8.40704 19.9486C7.90567 19.81 7.54715 19.304 7.55422 18.7457C7.55952 18.338 7.75505 17.9519 8.06443 17.7384C8.27551 17.5927 8.51665 17.5156 8.76133 17.5156C8.91973 17.5156 9.07601 17.5474 9.22557 17.6107C9.55581 17.7497 9.80932 18.0226 9.92141 18.3589C10.036 18.7029 9.99389 19.0844 9.80579 19.4062C9.5848 19.7838 9.21037 20.0005 8.77795 20.0005V20.0002Z" fill="#0F2648"/>
<path id="Vector_5" d="M9.7446 19.3703C9.46386 19.8504 8.94694 20.0247 8.42612 19.8805C7.95303 19.7497 7.6182 19.2773 7.62492 18.7466C7.62987 18.3555 7.81408 17.997 8.10436 17.7965C8.43071 17.5713 8.82955 17.5204 9.19797 17.6756C9.85739 17.9535 10.1141 18.7381 9.7446 19.3703Z" fill="#0F2648"/>
<path id="Vector_6" d="M15.2663 19.999C15.1069 19.999 14.9495 19.9686 14.7985 19.9085C14.3516 19.7303 14.0546 19.2908 14.0419 18.7883C14.0334 18.4429 14.1582 18.1197 14.3933 17.8782C14.6193 17.6466 14.9223 17.519 15.2465 17.519C15.2744 17.519 15.3031 17.5201 15.3314 17.5218C15.7684 17.5515 16.1701 17.8319 16.3543 18.2364C16.5636 18.6954 16.4925 19.2003 16.164 19.5867C15.9413 19.8487 15.6142 19.999 15.266 19.999H15.2663Z" fill="#0F2648"/>
<path id="Vector_7" d="M16.1103 19.5405C15.7889 19.9188 15.2741 20.0213 14.8247 19.8424C14.4142 19.6787 14.1246 19.2665 14.1126 18.7863C14.0956 18.1018 14.6415 17.5456 15.3267 17.5923C15.7698 17.6223 16.129 17.9116 16.2902 18.2655C16.4889 18.7011 16.4239 19.1717 16.1106 19.5408L16.1103 19.5405Z" fill="#0F2648"/>
</g>
</g>
<defs>
<linearGradient id="paint0_linear_0_4" x1="10.9146" y1="12.8415" x2="22.5678" y2="1.09785" gradientUnits="userSpaceOnUse">
<stop stop-color="#22769A"/>
<stop offset="1" stop-color="#6FCEEA"/>
</linearGradient>
</defs>
</svg>
